<?xml version="1.0" encoding="iso-8859-1"?>
<!-- Uploaded to: SVG Repo, www.svgrepo.com, Generator: SVG Repo Mixer Tools -->
<!DOCTYPE svg PUBLIC "-//W3C//DTD SVG 1.1//EN" "http://www.w3.org/Graphics/SVG/1.1/DTD/svg11.dtd">
<svg version="1.1" id="Capa_1" xmlns="http://www.w3.org/2000/svg" xmlns:xlink="http://www.w3.org/1999/xlink" 
	 width="800px" height="800px" viewBox="0 0 280.52 280.52"
	 xml:space="preserve">
<g>
	<g>
		<path style="fill:#030303;" d="M280.52,259.983h-72.315V116.369c0-32.498-32.387-62.089-67.947-62.089
			c-35.56,0-67.944,29.591-67.944,62.089v143.614H0V134.404h38.562v-18.035c0-51.053,47.517-95.833,101.688-95.833
			c54.173,0,101.695,44.781,101.695,95.833v18.035h38.573V259.983z M219.915,248.272h48.895V146.114h-38.574v-29.745
			c0-44.809-42.056-84.123-89.984-84.123c-47.931,0-89.979,39.314-89.979,84.123v29.745H11.71v102.158h48.892V116.369
			c0-39.311,37.221-73.799,79.654-73.799c42.434,0,79.658,34.488,79.658,73.799V248.272z"/>
	</g>
</g>
</svg>