<svg width="104" height="104" xmlns="http://www.w3.org/2000/svg" xmlns:xlink="http://www.w3.org/1999/xlink" xml:space="preserve" overflow="hidden"><defs><clipPath id="clip0"><rect x="525" y="197" width="104" height="104"/></clipPath></defs><g clip-path="url(#clip0)" transform="translate(-525 -197)"><path d="M577.041 197C548.306 197 525 220.306 525 249.041 525 277.775 548.306 301.081 577.041 301.081 605.775 301.081 629.081 277.775 629.081 249.041 629.081 220.306 605.793 197 577.041 197ZM607.071 229.044 577.041 255.047 547.028 229.044 607.071 229.044ZM545.032 231.04 567.06 250.056 545.032 269.055 545.032 231.04ZM547.028 271.069 568.951 252.175 577.058 258.829 585.043 252.175 607.088 271.069 547.028 271.069ZM609.067 269.055 587.057 250.039 609.084 231.022 609.084 269.055 609.067 269.055Z" fill="#FFFFFF"/></g></svg>