<svg width="103" height="104" xmlns="http://www.w3.org/2000/svg" xmlns:xlink="http://www.w3.org/1999/xlink" xml:space="preserve" overflow="hidden"><g transform="translate(-1007 -179)"><path d="M51.5 0C79.9236 0 103 23.0764 103 51.5 103 79.9236 79.9236 103 51.5 103 23.0764 103 0 79.9236 0 51.5 0 23.0764 23.0764 0 51.5 0ZM51.5 19.3125C42.7585 19.3125 41.6623 19.3495 38.2291 19.5062 34.8031 19.6625 32.4633 20.2067 30.4158 21.0023 28.2992 21.8249 26.5042 22.9255 24.7148 24.715 22.9253 26.5044 21.8247 28.2995 21.0021 30.416 20.2065 32.4633 19.6625 34.8031 19.506 38.2291 19.3495 41.6623 19.3125 42.7585 19.3125 51.5 19.3125 60.2415 19.3495 61.3377 19.506 64.7709 19.6625 68.1969 20.2065 70.5367 21.0021 72.584 21.8247 74.7005 22.9253 76.4956 24.7148 78.2852 26.5042 80.0747 28.2992 81.1753 30.4158 81.9979 32.4633 82.7933 34.8031 83.3375 38.2291 83.4938 41.6623 83.6505 42.7585 83.6875 51.5 83.6875 60.2415 83.6875 61.3377 83.6505 64.7709 83.4938 68.1969 83.3375 70.5367 82.7933 72.584 81.9979 74.7005 81.1753 76.4956 80.0747 78.2852 78.2852 80.0747 76.4956 81.1753 74.7005 81.9979 72.584 82.7933 70.5367 83.3375 68.1969 83.4938 64.7709 83.6505 61.3377 83.6875 60.2415 83.6875 51.5 83.6875 42.7585 83.6505 41.6623 83.4938 38.2291 83.3375 34.8031 82.7933 32.4633 81.9979 30.416 81.1753 28.2995 80.0747 26.5044 78.2852 24.715 76.4956 22.9255 74.7005 21.8249 72.584 21.0023 70.5367 20.2067 68.1969 19.6625 64.7709 19.5062 61.3377 19.3495 60.2415 19.3125 51.5 19.3125ZM51.5 25.1121C60.0945 25.1121 61.1124 25.1449 64.5066 25.2998 67.6448 25.443 69.349 25.9673 70.4832 26.408 71.9857 26.9918 73.058 27.6895 74.1841 28.8159 75.3107 29.942 76.0082 31.0145 76.592 32.5168 77.0327 33.651 77.5572 35.3552 77.7002 38.4934 77.8551 41.8876 77.8879 42.9055 77.8879 51.5 77.8879 60.0945 77.8551 61.1124 77.7002 64.5066 77.5572 67.6448 77.0327 69.349 76.592 70.4832 76.0082 71.9857 75.3107 73.058 74.1841 74.1841 73.058 75.3107 71.9857 76.0082 70.4832 76.592 69.349 77.0327 67.6448 77.5572 64.5066 77.7002 61.113 77.8551 60.0951 77.8879 51.5 77.8879 42.9049 77.8879 41.8872 77.8551 38.4934 77.7002 35.3552 77.5572 33.651 77.0327 32.5168 76.592 31.0143 76.0082 29.942 75.3107 28.8157 74.1841 27.6893 73.058 26.9918 71.9857 26.408 70.4832 25.9673 69.349 25.4428 67.6448 25.2996 64.5066 25.1447 61.1124 25.1121 60.0945 25.1121 51.5 25.1121 42.9055 25.1447 41.8876 25.2996 38.4934 25.4428 35.3552 25.9673 33.651 26.408 32.5168 26.9918 31.0145 27.6893 29.942 28.8157 28.8159 29.942 27.6895 31.0143 26.9918 32.5168 26.408 33.651 25.9673 35.3552 25.443 38.4934 25.2998 41.8876 25.1449 42.9055 25.1121 51.5 25.1121ZM51.5 34.9713C42.3714 34.9713 34.9713 42.3714 34.9713 51.5 34.9713 60.6286 42.3714 68.0287 51.5 68.0287 60.6286 68.0287 68.0287 60.6286 68.0287 51.5 68.0287 42.3714 60.6286 34.9713 51.5 34.9713ZM51.5 62.2291C45.5745 62.2291 40.7709 57.4255 40.7709 51.5 40.7709 45.5745 45.5745 40.7709 51.5 40.7709 57.4255 40.7709 62.2291 45.5745 62.2291 51.5 62.2291 57.4255 57.4255 62.2291 51.5 62.2291ZM72.5444 34.3183C72.5444 36.4515 70.8149 38.1806 68.6817 38.1806 66.5487 38.1806 64.8194 36.4515 64.8194 34.3183 64.8194 32.1851 66.5487 30.4558 68.6817 30.4558 70.8149 30.4558 72.5444 32.1851 72.5444 34.3183Z" fill="#FFFFFF" fill-rule="evenodd" transform="matrix(1 0 0 1.00971 1007 179)"/></g></svg>