<svg width="104" height="104" xmlns="http://www.w3.org/2000/svg" xmlns:xlink="http://www.w3.org/1999/xlink" xml:space="preserve" overflow="hidden"><g transform="translate(-35 -179)"><path d="M87 179C115.7 179 139 202.3 139 231 139 259.7 115.7 283 87 283 58.3005 283 35 259.7 35 231 35 202.3 58.3005 179 87 179ZM77.8409 258.657C100.851 258.657 113.433 239.59 113.433 223.065 113.433 222.52 113.433 221.975 113.407 221.456 115.846 219.692 117.973 217.487 119.659 214.971 117.428 215.957 115.016 216.631 112.473 216.943 115.068 215.386 117.039 212.947 117.973 210.016 115.56 211.443 112.888 212.48 110.035 213.051 107.752 210.613 104.509 209.108 100.903 209.108 94.0027 209.108 88.3993 214.712 88.3993 221.612 88.3993 222.598 88.5031 223.558 88.7365 224.466 78.3339 223.947 69.1244 218.966 62.9504 211.391 61.8866 213.233 61.2641 215.386 61.2641 217.669 61.2641 222.001 63.4692 225.841 66.8417 228.072 64.7921 228.02 62.8724 227.449 61.1863 226.515L61.1863 226.671C61.1863 232.741 65.4925 237.774 71.2257 238.941 70.1882 239.227 69.0726 239.382 67.9312 239.382 67.1269 239.382 66.3487 239.305 65.5705 239.149 67.1529 244.13 71.7705 247.736 77.2443 247.839 72.9639 251.186 67.568 253.183 61.705 253.183 60.6933 253.183 59.7075 253.131 58.7217 253.002 64.1956 256.582 70.7847 258.657 77.8409 258.657Z" fill="#FFFFFF" fill-rule="evenodd"/></g></svg>